<svg xmlns="http://www.w3.org/2000/svg" viewBox="0 0 156 28"><path fill="#F7C325" d="m15.21.11 3.889 9.467 9.674 1.006-7.27 6.858 2.09 10.09-8.384-5.23-8.383 5.23 2.09-10.09-7.27-6.858 9.673-1.006L15.21.11ZM46.604.11l3.89 9.467 9.674 1.006-7.27 6.858 2.089 10.09-8.383-5.23-8.383 5.23 2.09-10.09-7.271-6.858 9.674-1.006L46.604.11ZM78 .11l3.89 9.467 9.674 1.006-7.27 6.858 2.09 10.09L78 22.3l-8.383 5.23 2.09-10.09-7.27-6.858 9.674-1.006L78 .11ZM109.395.11l3.889 9.467 9.675 1.006-7.271 6.858 2.09 10.09-8.383-5.23-8.383 5.23 2.089-10.09-7.27-6.858 9.674-1.006 3.89-9.468ZM140.791.11l3.89 9.467 9.674 1.006-7.27 6.858 2.089 10.09-8.383-5.23-8.383 5.23 2.09-10.09-7.271-6.858 9.675-1.006L140.791.11Z"/></svg>