<svg xmlns="http://www.w3.org/2000/svg" aria-hidden="true" viewBox="0 0 20 21"><path fill="#4285F4" fill-rule="evenodd" d="M20 10.511c0-.694-.065-1.362-.185-2.002h-9.61v3.786h5.49c-.236 1.224-.955 2.26-2.035 2.954v2.457h3.297C18.887 16 20 13.492 20 10.51Z" clip-rule="evenodd"/><path fill="#34A853" fill-rule="evenodd" d="M10.205 20.077c2.755 0 5.065-.877 6.753-2.372L13.66 15.25c-.913.587-2.082.934-3.455.934a6.058 6.058 0 0 1-5.71-4.035h-3.41v2.536c1.68 3.2 5.13 5.393 9.12 5.393Z" clip-rule="evenodd"/><path fill="#FBBC05" fill-rule="evenodd" d="M4.495 12.148a5.667 5.667 0 0 1-.32-1.86c0-.645.115-1.272.32-1.86V5.894h-3.41A9.461 9.461 0 0 0 0 10.289c0 1.579.394 3.074 1.085 4.395l3.41-2.536Z" clip-rule="evenodd"/><path fill="#EA4335" fill-rule="evenodd" d="M10.205 4.393c1.498 0 2.843.494 3.9 1.464l2.927-2.808C15.265 1.47 12.955.5 10.205.5c-3.99 0-7.44 2.193-9.12 5.393l3.41 2.536a6.058 6.058 0 0 1 5.71-4.036Z" clip-rule="evenodd"/></svg>