<svg xmlns="http://www.w3.org/2000/svg" class="chakra-icon css-1ngcqk8" viewBox="0 0 32 32"><circle cx="15.902" cy="15.946" r="3.694" fill="#F7C325" transform="rotate(135 15.902 15.946)"/><path fill="#F7C325" fill-rule="evenodd" d="M22.825 22.824c-3.852 3.852-10.098 3.852-13.95 0-3.853-3.852-3.853-10.097 0-13.95 3.852-3.852 10.097-3.852 13.95 0 3.852 3.852 3.852 10.098 0 13.95Zm-5.42-5.436a2.192 2.192 0 1 1-3.1-3.1 2.192 2.192 0 0 1 3.1 3.1Z" clip-rule="evenodd"/><circle cx="15.902" cy="15.946" r="3.694" fill="#F7C325" transform="rotate(135 15.902 15.946)"/><path fill="#F7C325" fill-rule="evenodd" d="M22.825 22.824c-3.852 3.852-10.098 3.852-13.95 0-3.853-3.852-3.853-10.097 0-13.95 3.852-3.852 10.097-3.852 13.95 0 3.852 3.852 3.852 10.098 0 13.95Zm-5.42-5.436a2.192 2.192 0 1 1-3.1-3.1 2.192 2.192 0 0 1 3.1 3.1Z" clip-rule="evenodd"/><path fill="#F7C325" d="M18.082 27.966h-4.501V3.735h4.501z"/><path fill="#F7C325" d="M3.715 18.1v-4.5h24.231v4.5z"/><path fill="#F7C325" d="m8.853 26.008-3.182-3.182L22.805 5.692l3.182 3.182z"/><path fill="#F7C325" d="M5.672 8.874 8.855 5.69l17.134 17.134-3.183 3.183z"/><path fill="#fff" d="M17.663 15.73h-3.716l.62-1.362v-3.345h2.477v3.345l.619 1.362Z"/><path d="M17.837 15.583h-4.006l-2.368 3.924 1.026 1.342h6.791l.869-1.342-2.312-3.924Z"/><path stroke="#fff" stroke-width="1.2" d="m11.463 19.582.932 1.267h6.894l.86-1.267-3.01-5.154v-3.529h-2.623v3.529l-3.053 5.154Z"/></svg>