<svg xmlns="http://www.w3.org/2000/svg" class="chakra-icon css-12wkbdf" viewBox="0 0 384 384"><g clip-path="url(#clip0_31_30)"><path fill="url(#a)" d="M87.128 89.142c4.695-17.505 24.72-25.788 40.408-16.713L334.098 191.91c18.805 10.878 18.212 38.225-1.048 48.277L55.61 384.982c-21.266 11.099-45.575-8.394-39.36-31.563L87.127 89.142Z" opacity=".5"/><path fill="#29CC57" fill-rule="evenodd" d="m358.23 215.986.005-.01c15.254-26.443 6.719-50.327.297-62.078-14.956-27.372-24.273-65.694-24.392-93.902-.043-10.581-4.721-35.628-31.378-51.02-26.658-15.39-50.695-6.907-59.873-1.665-24.489 14.001-62.336 25.094-93.518 25.827-13.382.304-38.333 4.855-53.607 31.286l-.006.01-.012.02c-15.253 26.444-6.718 50.328-.297 62.079 14.957 27.371 24.273 65.694 24.392 93.902.044 10.581 4.721 35.628 31.379 51.019 26.658 15.391 50.695 6.908 59.873 1.665 24.489-14.001 62.335-25.093 93.518-25.827 13.387-.314 38.339-4.865 53.613-31.296l.006-.01Z" clip-rule="evenodd"/><path fill="#fff" d="M184.859 103.313c-8.37 14.496-3.403 33.032 11.093 41.402l57.268 33.063c14.496 8.37 33.032 3.403 41.402-11.093l27.643-47.88-109.763-63.372-27.643 47.88Z"/><path d="m276.647 138.175-47.723-27.553 19.801-34.297 47.724 27.552-19.802 34.298Z"/></g><defs><linearGradient id="a" x1="159.197" x2="-33.298" y1="149.606" y2="309.112" gradientUnits="userSpaceOnUse"><stop stop-color="#29CC57"/><stop offset="1" stop-color="#29CC57" stop-opacity="0"/></linearGradient></defs></svg>